# xmcd CD database file
#
# Track frame offsets:
#	150
#	17973
#	42475
#	69858
#	93968
#	114885
#	133873
#	167333
#	184318
#	207008
#
# Disc length: 3098 seconds
#
# Revision: 0
# Processed by: cddbd v1.5.1PL2 Copyright (c) Steve Scherf et al.
# Submitted via: CDex 1.60beta1
#
DISCID=7f0c180a
DTITLE=Perfume de Salsa - Solo Ella
DYEAR=1900
DGENRE=Salsa
TTITLE0=Rio de Oro
TTITLE1=Solo Ella
TTITLE2=Todos vuelven
TTITLE3=Elena Elena
TTITLE4=A tu memoria
TTITLE5=El baile del suavecifo
TTITLE6=Perfume de agua
TTITLE7=Tanto Tiempo
TTITLE8=Sentimiento
TTITLE9=Dame un traguito
EXTD=
EXTT0=
EXTT1=
EXTT2=
EXTT3=
EXTT4=
EXTT5=
EXTT6=
EXTT7=
EXTT8=
EXTT9=
PLAYORDER=
